<svg xmlns="http://www.w3.org/2000/svg" viewBox="0 0 1200 800" role="img" aria-hidden="true">
  <defs>
    <linearGradient id="bg" x1="0" y1="0" x2="1" y2="1">
      <stop offset="0%" stop-color="#1d4e2b" />
      <stop offset="100%" stop-color="#13331d" />
    </linearGradient>
    <radialGradient id="glow" cx="0.3" cy="0.3" r="0.7">
      <stop offset="0%" stop-color="#dbb341" stop-opacity="0.35" />
      <stop offset="100%" stop-color="#dbb341" stop-opacity="0" />
    </radialGradient>
  </defs>
  <rect width="1200" height="800" fill="url(#bg)" />
  <circle cx="360" cy="280" r="420" fill="url(#glow)" />
  <circle cx="900" cy="560" r="360" fill="url(#glow)" />
  <g fill="none" stroke="#f4f0e6" stroke-opacity="0.08" stroke-width="2">
    <path d="M0 120c120 60 220 40 340 0s220-60 340 0 220 60 340 0 220-60 340 0" />
    <path d="M0 320c120 60 220 40 340 0s220-60 340 0 220 60 340 0 220-60 340 0" />
    <path d="M0 520c120 60 220 40 340 0s220-60 340 0 220 60 340 0 220-60 340 0" />
    <path d="M0 720c120 60 220 40 340 0s220-60 340 0 220 60 340 0 220-60 340 0" />
  </g>
</svg>
