<svg xmlns="http://www.w3.org/2000/svg" viewBox="0 0 1200 800" role="img" aria-labelledby="title desc">
  <title id="title">Illustration de dératisation</title>
  <desc id="desc">Un gradient vert avec un piège stylisé et un rongeur minimaliste.</desc>
  <defs>
    <linearGradient id="bg" x1="0" x2="0" y1="0" y2="1">
      <stop offset="0%" stop-color="#1d4e2b" stop-opacity="0.9" />
      <stop offset="100%" stop-color="#1d4e2b" stop-opacity="0.7" />
    </linearGradient>
    <linearGradient id="highlight" x1="0" x2="1" y1="0" y2="1">
      <stop offset="0%" stop-color="#f4f0e6" stop-opacity="0.8" />
      <stop offset="100%" stop-color="#dbb341" stop-opacity="0.5" />
    </linearGradient>
  </defs>
  <rect width="1200" height="800" fill="url(#bg)" />
  <circle cx="600" cy="380" r="280" fill="url(#highlight)" opacity="0.35" />
  <g fill="none" stroke="#f4f0e6" stroke-width="14" stroke-linecap="round" stroke-linejoin="round">
    <rect x="320" y="470" width="560" height="120" rx="24" ry="24" opacity="0.75" />
    <path d="M360 470v-70h480v70" opacity="0.55" />
    <path d="M560 310c40-46 128-44 168 0" opacity="0.75" />
    <path d="M528 356c-40 40-48 112 14 148 44 26 116 24 156-44 26-42 12-100-34-124-36-20-92-18-136 20z" />
    <path d="M650 356c12 6 28 20 22 38" opacity="0.7" />
    <path d="M592 436c20 24 76 36 104 0" opacity="0.7" />
  </g>
</svg>
