<svg xmlns="http://www.w3.org/2000/svg" viewBox="0 0 1200 800" role="img" aria-labelledby="title desc">
  <title id="title">Illustration intervention guêpes et frelons</title>
  <desc id="desc">Un nid suspendu doré avec un environnement vert rassurant.</desc>
  <defs>
    <linearGradient id="bg" x1="0" x2="0" y1="0" y2="1">
      <stop offset="0%" stop-color="#f4f0e6" />
      <stop offset="60%" stop-color="#e7dfcc" />
      <stop offset="100%" stop-color="#d4c8b0" />
    </linearGradient>
  </defs>
  <rect width="1200" height="800" fill="url(#bg)" />
  <g fill="none" stroke="#1d4e2b" stroke-width="18" stroke-linecap="round" opacity="0.2">
    <path d="M180 620c60-120 220-280 420-260 200 20 320 180 420 300" />
  </g>
  <g fill="none" stroke="#1d4e2b" stroke-width="14" stroke-linecap="round" opacity="0.3">
    <path d="M420 140l120 120" />
    <path d="M320 180l120 120" />
  </g>
  <g transform="translate(520 170)">
    <path d="M180 0c12 0 24 6 32 16l72 92c10 12 12 28 4 42l-88 164c-6 12-20 20-34 20h-152c-14 0-28-8-34-20L-18 150c-8-14-6-30 4-42l72-92c8-10 20-16 32-16z" fill="#dbb341" opacity="0.9" />
    <path d="M60 60h240" stroke="#f4f0e6" stroke-width="18" opacity="0.35" />
    <path d="M40 140h280" stroke="#1d4e2b" stroke-width="12" opacity="0.3" />
    <path d="M60 200h240" stroke="#1d4e2b" stroke-width="12" opacity="0.25" />
    <path d="M80 260h200" stroke="#1d4e2b" stroke-width="12" opacity="0.22" />
    <circle cx="180" cy="120" r="46" fill="#1d4e2b" opacity="0.85" />
  </g>
  <g fill="#1d4e2b" opacity="0.55">
    <circle cx="340" cy="540" r="12" />
    <circle cx="940" cy="220" r="18" />
    <circle cx="980" cy="560" r="10" />
  </g>
  <g stroke="#1d4e2b" stroke-width="12" stroke-linecap="round" opacity="0.6">
    <path d="M720 180l-40-80" />
    <path d="M760 180l40-80" />
  </g>
</svg>
